<svg width="28" height="24" viewBox="0 0 28 24" fill="none" xmlns="http://www.w3.org/2000/svg">
<g opacity="0.99">
<rect x="1.5" y="2" width="25" height="20" rx="10" fill="#E21F26"/>
<path d="M10.684 13.688C10.18 13.928 9.616 14.048 9.004 14.048C8.548 14.048 8.188 13.94 7.96 13.736C7.84 13.628 7.768 13.484 7.744 13.352C10.18 13.424 11.524 12.812 11.524 11.336C11.524 10.136 10.564 9.464 9.328 9.464C7.108 9.464 5.812 11.276 5.812 13.076C5.812 14.72 6.76 15.62 8.488 15.62C9.088 15.62 10.012 15.536 10.804 15.152L10.684 13.688ZM9.616 11.324C9.616 11.708 9.184 11.888 7.936 11.876C7.996 11.492 8.356 10.94 9.088 10.94C9.424 10.94 9.616 11.12 9.616 11.324ZM20.6733 15.5L21.8013 7.412H19.0053L17.9373 9.8C17.6013 10.544 17.1333 11.588 16.7733 12.62H16.7253C16.7373 11.588 16.6533 10.604 16.6173 9.812L16.5213 7.412H13.7613L11.7572 15.5H13.6293L14.3013 12.608C14.5053 11.696 14.7453 10.484 14.9973 9.272H15.0213C15.0573 10.46 15.1173 11.648 15.1653 12.524L15.3213 15.332H16.9173L18.2493 12.512C18.6933 11.6 19.2093 10.424 19.7013 9.272H19.7253C19.4733 10.604 19.2933 11.684 19.1493 12.608L18.6933 15.5H20.6733Z" fill="white"/>
</g>
</svg>
