<svg width="60" height="24" viewBox="0 0 60 24" fill="none" xmlns="http://www.w3.org/2000/svg">
<rect width="60" height="24" rx="4" fill="#FDE9EB"/>
<path d="M18.8337 17.131C18.3483 17.131 17.9283 17.0563 17.5737 16.907C17.2283 16.7577 16.967 16.515 16.7897 16.179C16.6123 15.8337 16.5237 15.381 16.5237 14.821V6.79901H18.2457V14.541C18.2457 14.8023 18.2923 15.0123 18.3857 15.171C18.479 15.3203 18.6003 15.423 18.7497 15.479C18.9083 15.535 19.081 15.563 19.2677 15.563H22.6977V17.131H18.8337Z" fill="#DC3545"/>
<path d="M24.0022 17.131V6.79901H25.7242V17.131H24.0022Z" fill="#DC3545"/>
<path d="M30.3686 17.131L27.0086 6.79901H28.8006L31.4606 15.269L34.1206 6.79901H35.9126L32.5526 17.131H30.3686Z" fill="#DC3545"/>
<path d="M39.2204 17.201C38.9964 17.201 38.7444 17.1777 38.4644 17.131C38.1938 17.0937 37.9324 17.005 37.6804 16.865C37.4284 16.7157 37.2231 16.4963 37.0644 16.207C36.9058 15.9177 36.8264 15.521 36.8264 15.017V9.05301C36.8264 8.61435 36.8918 8.25035 37.0224 7.96101C37.1531 7.66235 37.3258 7.42901 37.5404 7.26101C37.7644 7.09301 38.0071 6.97634 38.2684 6.91101C38.5391 6.83634 38.8051 6.79901 39.0664 6.79901C39.7197 6.79901 40.3078 6.80834 40.8304 6.82701C41.3531 6.84568 41.8291 6.86434 42.2584 6.88301C42.6971 6.90168 43.1031 6.92501 43.4764 6.95301V8.39501H39.5704C39.2531 8.39501 39.0011 8.47434 38.8144 8.63301C38.6371 8.79168 38.5484 9.03901 38.5484 9.37501V11.209L42.8464 11.307V12.665L38.5484 12.763V14.541C38.5484 14.821 38.5951 15.0357 38.6884 15.185C38.7911 15.3343 38.9171 15.437 39.0664 15.493C39.2251 15.549 39.3884 15.577 39.5564 15.577H43.4764V17.019C43.0658 17.0563 42.6177 17.089 42.1324 17.117C41.6471 17.1357 41.1524 17.1497 40.6484 17.159C40.1537 17.1777 39.6777 17.1917 39.2204 17.201Z" fill="#DC3545"/>
</svg>
