<svg width="24" height="24" viewBox="0 0 24 24" fill="none" xmlns="http://www.w3.org/2000/svg">
<rect x="2" y="2" width="20" height="20" rx="10" fill="#E21F26"/>
<path d="M11.0716 16.46C10.9543 16.5773 10.8636 16.6627 10.7996 16.716C10.7356 16.7693 10.6236 16.8493 10.4636 16.956L10.0956 17.164L9.69563 17.34C9.08763 17.5427 8.49029 17.644 7.90363 17.644C7.09296 17.644 6.44763 17.468 5.96762 17.116C5.47696 16.764 5.23162 16.3 5.23162 15.724C5.23162 15.1267 5.47696 14.6253 5.96762 14.22C6.45829 13.804 7.05029 13.596 7.74363 13.596C8.18096 13.596 8.65029 13.676 9.15163 13.836L9.87163 14.14L10.2236 14.332L10.5436 14.556L10.7996 13.868L11.1036 12.94L11.4236 11.82L11.8076 10.364C11.157 10.268 10.6876 10.0813 10.3996 9.804C10.0796 9.52667 9.91963 9.18 9.91963 8.764C9.91963 8.444 9.98896 8.18267 10.1276 7.98C10.277 7.76667 10.4743 7.66 10.7196 7.66C10.7196 7.86267 10.7516 8.044 10.8156 8.204C10.8903 8.35333 11.0023 8.476 11.1516 8.572C11.3436 8.764 11.6956 8.924 12.2076 9.052C12.517 8.03867 12.9383 7.27067 13.4716 6.748C14.005 6.22533 14.6183 5.964 15.3116 5.964C15.8343 5.964 16.2503 6.10267 16.5596 6.38C16.869 6.636 17.0236 7.004 17.0236 7.484C17.0236 8.17733 16.7196 8.80133 16.1116 9.356C15.5036 9.91067 14.6876 10.252 13.6636 10.38L13.3116 12.044C13.269 12.2467 13.2156 12.4547 13.1516 12.668C13.0983 12.8813 13.029 13.1 12.9436 13.324C12.6876 14.092 12.3516 14.812 11.9356 15.484C12.277 15.7613 12.725 16.0227 13.2796 16.268C13.557 16.3853 13.8076 16.4653 14.0316 16.508C14.277 16.572 14.517 16.604 14.7516 16.604L14.4636 17.612H14.3836L13.9996 17.596C13.957 17.596 13.8876 17.5907 13.7916 17.58C13.6956 17.5693 13.5836 17.548 13.4556 17.516C13.189 17.484 13.0343 17.4573 12.9916 17.436L12.6556 17.308C12.357 17.2227 12.085 17.1053 11.8396 16.956L11.4716 16.748L11.0716 16.46ZM9.83963 15.612C9.54096 15.3987 9.19963 15.2227 8.81563 15.084C8.44229 14.9453 8.06363 14.876 7.67963 14.876C7.30629 14.876 7.01296 14.9507 6.79963 15.1C6.57563 15.228 6.46363 15.4253 6.46363 15.692C6.46363 15.9373 6.58096 16.14 6.81563 16.3C7.06096 16.4387 7.39696 16.508 7.82363 16.508C8.26096 16.508 8.62896 16.4333 8.92763 16.284C9.21563 16.1667 9.51963 15.9427 9.83963 15.612ZM13.9516 8.988C14.5063 8.86 14.9596 8.62 15.3116 8.268C15.6956 7.916 15.8876 7.58 15.8876 7.26C15.8876 7.14267 15.845 7.02533 15.7596 6.908C15.6956 6.85467 15.573 6.812 15.3916 6.78C15.1356 6.78 14.8743 6.96133 14.6076 7.324C14.3836 7.65467 14.165 8.20933 13.9516 8.988Z" fill="white"/>
</svg>
