<svg width="24" height="24" viewBox="0 0 24 24" fill="none" xmlns="http://www.w3.org/2000/svg">
<g clip-path="url(#clip0_363_16994)">
<path d="M4.39715 11.1978C4.39715 7.39233 7.51413 4.30756 11.3593 4.30756C15.2046 4.30756 18.3346 7.41601 18.3212 11.2218C18.3168 13.0375 17.5861 14.7775 16.2888 16.0614C15.3122 17.0235 14.6069 18.2218 14.2431 19.5372L13.682 21.5914H9.118L8.58643 19.6451C8.2134 18.3026 7.48578 17.0827 6.47842 16.1108C5.81835 15.4704 5.29422 14.7059 4.93682 13.8622C4.57941 13.0185 4.39593 12.1127 4.39715 11.1978Z" fill="#F4D242"/>
<path d="M10.305 24H12.5302C13.1606 24 13.6999 23.539 13.7358 22.9555L13.9236 20.699L8.88441 20.6673L9.09936 22.9555C9.13524 23.539 9.67456 24 10.305 24Z" fill="#126495"/>
<path d="M9.33719 21.6502C10.7444 21.7098 12.1579 21.6384 13.5655 21.7C13.6904 21.7052 13.6809 21.8859 13.5585 21.8901C12.1495 21.9364 10.7374 21.8501 9.32839 21.8943C9.17008 21.8999 9.17712 21.6433 9.33719 21.6502Z" fill="white"/>
<path d="M9.33719 22.2553C10.7444 22.3149 12.1579 22.2435 13.5655 22.3051C13.6904 22.3107 13.6809 22.4911 13.5585 22.4952C12.1495 22.5415 10.7374 22.4552 9.32839 22.4994C9.17008 22.5043 9.17712 22.248 9.33719 22.2553Z" fill="white"/>
<path d="M10.7916 0.803923C10.7916 1.24784 11.0301 2.84419 11.3245 2.84419C11.619 2.84419 11.8572 1.24784 11.8572 0.803923C11.8572 0.360007 11.6187 0 11.3245 0C11.0304 0 10.7916 0.360007 10.7916 0.803923Z" fill="#F4D242"/>
<path d="M4.15264 3.25576C4.49284 3.54509 5.55986 4.76437 5.36883 4.98511C5.1778 5.20585 3.79838 4.34483 3.45818 4.0555C3.11799 3.76617 2.99732 3.35255 3.18905 3.13146C3.38078 2.91037 3.81174 2.96608 4.15264 3.25576Z" fill="#F4D242"/>
<path d="M1.56511 10.3789C2.01014 10.435 3.64075 10.4019 3.67593 10.1129C3.71111 9.82393 2.14277 9.38871 1.69774 9.33266C1.25271 9.2766 0.861852 9.46566 0.824913 9.75429C0.787974 10.0429 1.12008 10.3229 1.56511 10.3789Z" fill="#F4D242"/>
<path d="M17.8867 2.72545C17.5349 2.99911 16.4091 4.16931 16.5924 4.39841C16.7757 4.6275 18.1907 3.82985 18.5439 3.55584C18.8971 3.28183 19.0364 2.87412 18.8549 2.64607C18.6733 2.41802 18.2399 2.45144 17.8867 2.72545Z" fill="#F4D242"/>
<path d="M21.2584 9.23761C20.8134 9.29367 19.1828 9.26059 19.1476 8.97161C19.1124 8.68263 20.6804 8.24742 21.1254 8.19136C21.5704 8.13531 21.9602 8.32436 21.9972 8.61334C22.0341 8.90232 21.7034 9.1819 21.2584 9.23761Z" fill="#F4D242"/>
<path d="M8.35427 14.706C8.57378 14.544 8.75286 14.3344 8.87775 14.0932C8.62516 13.7847 8.51399 13.37 8.46755 12.9843C8.44205 12.7487 8.42867 12.512 8.42744 12.2751C8.42393 12.0463 8.45418 11.8524 8.64978 11.71C8.82569 11.5829 9.05717 11.6974 9.19121 11.8207C9.34565 11.9627 9.42023 12.1953 9.48004 12.3893C9.60036 12.7802 9.59825 13.1998 9.52261 13.5984C9.49579 13.7376 9.45659 13.8742 9.40546 14.0065C9.5055 14.0845 9.6188 14.1441 9.74002 14.1827C10.1203 14.3031 10.4085 14.0862 10.5844 13.7649C10.6137 13.7119 10.6411 13.6564 10.6667 13.5981C10.6368 13.5187 10.6083 13.4393 10.5815 13.361C10.4555 12.9781 10.3772 12.5814 10.3483 12.1797C10.3216 11.8478 10.3131 11.4516 10.6347 11.2549C10.7381 11.1916 10.8549 11.2396 10.92 11.3291C11.3914 11.976 11.3647 12.8342 11.1089 13.5685C11.1918 13.7636 11.2874 13.9532 11.3953 14.136C11.5135 14.3373 11.739 14.6478 12.0127 14.6085C12.2677 14.5719 12.47 14.2554 12.5981 14.0594C12.6897 13.9164 12.7645 13.7635 12.8211 13.6037C12.7888 13.5194 12.7587 13.4341 12.7311 13.3478C12.6264 13.0077 12.5611 12.6569 12.5365 12.3022C12.5129 12.0066 12.5034 11.5912 12.8299 11.4499C12.9249 11.4088 13.0653 11.413 13.1156 11.5241C13.401 12.1501 13.4574 12.8549 13.2753 13.5177C13.269 13.5403 13.2619 13.5629 13.2549 13.5856C13.4565 14.0856 13.7497 14.5445 14.1196 14.9392C14.2839 15.1158 14.0239 15.3758 13.853 15.2032C13.5288 14.8753 13.2561 14.5013 13.0438 14.0935C12.9811 14.2101 12.9106 14.3223 12.8327 14.4295C12.6195 14.7216 12.3522 14.9956 11.9683 15.0158C11.6099 15.035 11.3186 14.7373 11.124 14.4776C11.0308 14.3509 10.9484 14.2167 10.8778 14.0765C10.7019 14.3533 10.4489 14.573 10.1038 14.6207C9.78717 14.6645 9.47899 14.5671 9.219 14.3947C9.06655 14.6517 8.87082 14.8809 8.64029 15.0726C8.37819 15.2895 8.07881 14.9055 8.35427 14.706ZM10.7525 11.8322C10.7377 11.9972 10.7761 12.2009 10.7856 12.3012C10.8034 12.484 10.834 12.6654 10.8774 12.844C10.921 12.492 10.8918 12.1313 10.7525 11.8322ZM9.12402 12.8704C9.10766 12.6988 9.06851 12.5302 9.00757 12.3687C8.98194 12.2955 8.94794 12.2254 8.90625 12.1598C8.89618 12.1457 8.88526 12.1322 8.87353 12.1194C8.86938 12.1359 8.86667 12.1526 8.86544 12.1696C8.84328 12.5874 8.8781 13.04 9.00968 13.4372C9.02594 13.4864 9.04533 13.5346 9.06773 13.5814C9.12285 13.3486 9.14183 13.1089 9.12402 12.8704Z" fill="white"/>
<path d="M7.95845 13.6925C8.69723 15.9284 9.47789 18.1536 10.3155 20.3561C10.4158 20.6196 10.0052 20.7812 9.90568 20.5176C9.0712 18.312 8.29653 16.0861 7.60172 13.8328C7.5296 13.6009 7.8807 13.4581 7.95845 13.6925Z" fill="white"/>
<path d="M14.6916 13.5511C14.1006 15.8305 13.549 18.1208 13.0578 20.4232C12.9991 20.699 12.5653 20.6168 12.6244 20.3418C13.1198 18.0379 13.6756 15.7491 14.3131 13.4797C14.3796 13.2457 14.7528 13.3122 14.6916 13.5511Z" fill="white"/>
</g>
<defs>
<clipPath id="clip0_363_16994">
<rect width="21.1765" height="24" fill="white" transform="matrix(-1 0 0 1 22 0)"/>
</clipPath>
</defs>
</svg>
