<svg width="24" height="24" viewBox="0 0 24 24" fill="none" xmlns="http://www.w3.org/2000/svg">
<path fill-rule="evenodd" clip-rule="evenodd" d="M1.25 7.00007C1.25 4.37671 3.37665 2.25006 6 2.25006H18C20.6234 2.25006 22.75 4.37671 22.75 7.00006V15.104C22.75 17.7273 20.6234 19.854 18 19.854H7.42951C7.31817 19.854 7.21001 19.8911 7.12219 19.9596L4.4793 22.019C3.16584 23.0424 1.25 22.1065 1.25 20.4414V7.00007ZM6 3.75006C4.20508 3.75006 2.75 5.20514 2.75 7.00007V20.4414C2.75 20.8576 3.22896 21.0916 3.55732 20.8358L6.20021 18.7764C6.55152 18.5026 6.98414 18.354 7.42951 18.354H18C19.7949 18.354 21.25 16.8989 21.25 15.104V7.00006C21.25 5.20514 19.7949 3.75006 18 3.75006H6Z" fill="black"/>
<path d="M9 11.0001C9 11.5523 8.55228 12.0001 8 12.0001C7.44772 12.0001 7 11.5523 7 11.0001C7 10.4478 7.44772 10.0001 8 10.0001C8.55228 10.0001 9 10.4478 9 11.0001Z" fill="black"/>
<path d="M13 11.0001C13 11.5523 12.5523 12.0001 12 12.0001C11.4477 12.0001 11 11.5523 11 11.0001C11 10.4478 11.4477 10.0001 12 10.0001C12.5523 10.0001 13 10.4478 13 11.0001Z" fill="black"/>
<path d="M17 11.0001C17 11.5523 16.5523 12.0001 16 12.0001C15.4477 12.0001 15 11.5523 15 11.0001C15 10.4478 15.4477 10.0001 16 10.0001C16.5523 10.0001 17 10.4478 17 11.0001Z" fill="black"/>
</svg>
