<svg width="24" height="24" viewBox="0 0 24 24" fill="none" xmlns="http://www.w3.org/2000/svg">
<path d="M5 5.00006L19 19.0001" stroke="black" stroke-width="1.5" stroke-linecap="round"/>
<path fill-rule="evenodd" clip-rule="evenodd" d="M9.38971 9.45043C9.35034 9.41107 9.2863 9.41134 9.24847 9.45218C8.62879 10.1211 8.25 11.0163 8.25 12.0001C8.25 14.0711 9.92893 15.7501 12 15.7501C12.9837 15.7501 13.879 15.3713 14.5479 14.7516C14.5887 14.7138 14.589 14.6497 14.5496 14.6103L13.6298 13.6905C13.5912 13.6519 13.5291 13.6515 13.4882 13.6876C13.0916 14.0377 12.5706 14.2501 12 14.2501C10.7574 14.2501 9.75 13.2427 9.75 12.0001C9.75 11.4295 9.96241 10.9085 10.3125 10.5118C10.3485 10.471 10.3481 10.4088 10.3096 10.3703L9.38971 9.45043ZM14.2754 12.2148C14.2547 12.1941 14.2442 12.1653 14.246 12.1361C14.2486 12.0911 14.25 12.0457 14.25 12.0001C14.25 10.7574 13.2426 9.75006 12 9.75006C11.9543 9.75006 11.909 9.75142 11.864 9.7541C11.8347 9.75585 11.806 9.74538 11.7853 9.72466L10.6928 8.63219C10.6422 8.58161 10.6596 8.49598 10.7269 8.4717C11.1244 8.32825 11.5531 8.25006 12 8.25006C14.0711 8.25006 15.75 9.92899 15.75 12.0001C15.75 12.447 15.6718 12.8757 15.5284 13.2732C15.5041 13.3405 15.4184 13.3578 15.3679 13.3073L14.2754 12.2148Z" fill="black"/>
<path fill-rule="evenodd" clip-rule="evenodd" d="M6.6166 6.67726C6.58538 6.64605 6.53714 6.63908 6.4984 6.66023C4.2754 7.87376 2.78117 9.58898 2.0117 10.6306C1.40544 11.4513 1.40544 12.5489 2.0117 13.3695C3.30079 15.1145 6.62395 18.7501 12.0001 18.7501C14.0413 18.7501 15.7865 18.226 17.2369 17.4802C17.2967 17.4495 17.3088 17.3694 17.2612 17.3218L16.2881 16.3488C16.2583 16.3189 16.213 16.3111 16.1747 16.3288C14.9852 16.8802 13.5934 17.2501 12.0001 17.2501C7.3491 17.2501 4.41552 14.099 3.21819 12.4783C3.00328 12.1873 3.00328 11.8128 3.21819 11.5219C3.97359 10.4993 5.42011 8.86763 7.55299 7.80246C7.61458 7.7717 7.62874 7.6894 7.58005 7.64072L6.6166 6.67726ZM17.6807 15.62C17.636 15.5753 17.6436 15.5008 17.6959 15.4653C19.1551 14.4763 20.1846 13.2868 20.7819 12.4783C20.9968 12.1873 20.9968 11.8128 20.7819 11.5219C19.5846 9.9011 16.651 6.75006 12.0001 6.75006C11.0112 6.75006 10.1 6.8925 9.26661 7.13238C9.23143 7.1425 9.19352 7.13286 9.16763 7.10698L8.13321 6.07256C8.08173 6.02108 8.10073 5.93368 8.16929 5.90917C9.30321 5.50371 10.58 5.25006 12.0001 5.25006C17.3762 5.25006 20.6993 8.88561 21.9884 10.6306C22.5947 11.4512 22.5947 12.5489 21.9884 13.3695C21.3721 14.2038 20.2908 15.4703 18.7425 16.5649C18.703 16.5929 18.6489 16.5882 18.6146 16.5539L17.6807 15.62Z" fill="black"/>
</svg>
