<svg width="24" height="24" viewBox="0 0 24 24" fill="none" xmlns="http://www.w3.org/2000/svg">
<path fill-rule="evenodd" clip-rule="evenodd" d="M1.25 11.5001C1.25 9.70514 2.70507 8.25006 4.5 8.25006C6.29493 8.25006 7.75 9.70514 7.75 11.5001V18.5001C7.75 20.295 6.29493 21.7501 4.5 21.7501C2.70507 21.7501 1.25 20.295 1.25 18.5001V11.5001ZM4.5 9.75006C3.5335 9.75006 2.75 10.5336 2.75 11.5001V18.5001C2.75 19.4666 3.5335 20.2501 4.5 20.2501C5.4665 20.2501 6.25 19.4666 6.25 18.5001V11.5001C6.25 10.5336 5.4665 9.75006 4.5 9.75006Z" fill="black"/>
<path fill-rule="evenodd" clip-rule="evenodd" d="M13.544 2.68061C14.0652 2.39583 14.7474 2.26113 15.4236 2.62055C16.257 3.06355 16.5897 3.8309 16.6336 4.61336C16.6752 5.35689 16.4661 6.15966 16.1961 6.87738C15.8733 7.73546 15.4231 8.57501 15.0411 9.21783H18.6051C20.7606 9.21783 22.2326 11.3977 21.4271 13.3971L18.8296 19.8446C18.3658 20.996 17.249 21.7501 16.0076 21.7501H9.38655C8.76459 21.7501 8.15756 21.5595 7.64726 21.2039L7.55311 21.1383C6.73665 20.5694 6.25 19.6372 6.25 18.6421V11.1291C6.25 9.17631 7.4252 8.11741 8.64516 7.19958C8.83571 7.05622 9.02873 6.915 9.22286 6.77296C10.2996 5.98513 11.4109 5.17205 12.3276 3.82932C12.6206 3.40013 13.0382 2.95697 13.544 2.68061ZM14.2633 3.99691C14.026 4.12656 13.7711 4.37525 13.5664 4.67507C12.4923 6.24833 11.1539 7.22351 10.0752 8.0094C9.89064 8.14387 9.71369 8.2728 9.54696 8.39823C8.37839 9.2774 7.75 9.94333 7.75 11.1291V18.6421C7.75 19.1466 7.99671 19.6192 8.41063 19.9076L8.50479 19.9732C8.76349 20.1534 9.07123 20.2501 9.38655 20.2501H16.0076C16.6369 20.2501 17.2031 19.8678 17.4383 19.284L20.0357 12.8366C20.4441 11.8229 19.6979 10.7178 18.6051 10.7178H13.89C13.2001 10.7178 12.7788 9.94377 13.1726 9.36412C13.4882 8.89944 14.3125 7.62436 14.7921 6.3493C15.0343 5.7054 15.1603 5.13336 15.1359 4.69725C15.1137 4.30008 14.979 4.08298 14.7196 3.94507C14.6163 3.89019 14.4851 3.87568 14.2633 3.99691Z" fill="black"/>
</svg>
