<svg width="190" height="74" viewBox="0 0 190 74" fill="none" xmlns="http://www.w3.org/2000/svg">
<g id="gdvn-logo 1" clip-path="url(#clip0_388_14756)">
<g id="Group">
<path id="Vector" d="M21.6365 0.0941476C13.3702 0.878711 5.94926 5.86853 2.31709 13.1179C-1.53426 20.7752 -0.563595 30.0645 4.79072 36.8117C8.64207 41.6132 13.7772 44.5946 20.1335 45.7557C21.4486 45.9754 24.0475 45.9754 95.0313 45.9754H168.551L170.086 45.693C175.377 44.7201 179.949 42.335 183.487 38.6633C187.589 34.3952 189.718 29.4996 189.937 23.6938C190.157 17.7625 187.965 12.0823 183.769 7.62595C180.137 3.70314 175.471 1.2553 169.804 0.25106C168.677 0.0313825 163.448 0.0313825 95.6889 0C55.6098 0 22.294 0.0313825 21.6365 0.0941476ZM167.957 1.12977C178.195 2.00848 186.618 9.25785 188.56 18.8609C191.127 31.5081 181.671 43.5903 168.176 44.877C166.234 45.0653 23.6717 45.0653 21.8557 44.877C13.4954 44.0297 6.38762 39.1026 3.00595 31.8219C-0.688842 23.8821 0.90806 14.7184 7.07648 8.28499C11.0218 4.14249 16.2195 1.63189 21.8557 1.12977C23.703 0.941476 166.046 0.941476 167.957 1.12977Z" fill="#126495"/>
<path id="Vector_2" d="M22.1061 2.85577C16.6892 3.64033 11.9298 6.05679 8.23502 9.91684C5.60483 12.6785 3.9453 15.8168 3.16251 19.5827C2.78677 21.3401 2.75546 24.3528 3.09989 26.0788C4.10186 31.4139 7.20173 36.0271 11.9298 39.1967C14.9984 41.268 18.2548 42.4919 22.2314 43.1195C23.6404 43.3392 26.8655 43.3392 94.8748 43.3392C153.303 43.3392 166.266 43.3078 167.33 43.1823C176.473 41.9584 183.8 36.3409 186.305 28.5894C190.125 16.8838 181.389 4.73872 167.8 2.82439C166.516 2.63609 159.064 2.60471 94.8435 2.63609C34.8814 2.69886 23.1394 2.69886 22.1061 2.85577ZM130.727 3.89139C130.977 4.01692 131.322 4.29936 131.51 4.55042C132.23 5.4919 132.23 5.30361 132.23 14.9067C132.23 23.223 132.23 23.8193 131.979 24.5725C131.666 25.6081 131.322 26.173 130.602 26.8006C129.474 27.8049 129.224 27.8363 124.057 27.8363C119.768 27.8363 119.455 27.8363 118.797 27.5538C117.858 27.2086 116.887 26.3299 116.449 25.3884L116.073 24.6666V19.7709C116.073 15.0008 116.073 14.8439 116.355 14.2476C116.762 13.3375 117.67 12.4274 118.609 11.9881L119.423 11.6115L123.181 11.5801L126.938 11.5173L127.001 8.7243C127.032 6.43338 127.095 5.83711 127.282 5.42914C127.627 4.67595 128.065 4.11107 128.566 3.89139C129.036 3.64033 130.163 3.64033 130.727 3.89139ZM99.4776 6.24508C99.6968 6.40199 100.104 6.90411 100.417 7.34347C100.918 8.06527 100.949 8.1908 100.918 8.81845C100.887 9.19504 100.761 9.60301 100.636 9.79131C100.386 10.1679 97.0666 12.804 96.4404 13.1492C95.501 13.6514 94.4677 13.3061 93.6223 12.1764C92.8082 11.1094 92.7456 10.0737 93.4344 9.2578C93.8102 8.81845 96.8474 6.40199 97.4423 6.05679C97.912 5.80573 98.9453 5.89987 99.4776 6.24508ZM66.7568 7.53176C67.6335 8.0025 67.8214 8.41047 67.8214 10.0737C67.8214 11.737 67.6648 12.145 66.7568 12.6157L66.1932 12.8982H47.8445C33.2218 12.8982 29.4018 12.9296 29.0261 13.0551C28.7756 13.1492 28.3372 13.4631 28.0867 13.7455L27.617 14.2476V22.972V31.6963L28.1806 32.2298C28.5251 32.575 28.9321 32.8261 29.2766 32.9202C29.6523 33.0144 34.1612 33.0771 45.1829 33.0458L60.557 33.0144L61.0893 32.7319C61.3711 32.575 61.7469 32.2612 61.9348 32.0101C62.2166 31.6022 62.2166 31.4766 62.2792 28.715L62.3105 25.8278L48.9717 25.7964C35.6955 25.765 35.6328 25.765 35.2884 25.4826C34.5056 24.8863 34.3491 24.4783 34.3491 23.0661C34.3491 21.4656 34.5369 21.0263 35.351 20.5241L35.946 20.1789H51.0696C66.1619 20.1789 66.1932 20.1789 66.7255 20.4614C67.0073 20.6183 67.383 20.9321 67.5396 21.1518L67.8214 21.5911L67.7901 27.8676L67.7588 34.1128L67.2578 35.117C66.4437 36.843 65.0033 37.9728 63.0933 38.4749C62.4357 38.6318 60.0247 38.6632 44.9325 38.6632C32.7208 38.6632 27.3039 38.6318 26.8342 38.5063C24.3293 38.0042 22.3253 35.9016 21.9809 33.4223C21.887 32.8261 21.8557 29.0602 21.887 22.2502L21.9183 12.145L22.2314 11.2977C22.6071 10.2934 23.3273 9.28919 24.0788 8.66154C24.7363 8.12803 26.1141 7.469 26.8655 7.31209C27.1787 7.24932 36.1651 7.21794 46.8112 7.21794H66.1932L66.7568 7.53176ZM73.8646 11.5801C74.8039 11.7684 75.618 12.5216 75.8998 13.4631C76.1503 14.3104 76.0564 14.9694 75.618 15.6912C74.5221 17.3859 72.1424 17.3859 71.0465 15.6912C70.6081 15.0008 70.5142 14.3418 70.7647 13.4944C71.0465 12.4902 72.0485 11.6743 73.1757 11.486C73.1757 11.4232 73.4888 11.486 73.8646 11.5801ZM92.0567 11.9881C92.9334 12.4274 93.6223 13.1492 94.092 14.1221L94.4364 14.8439V19.614C94.4364 25.2943 94.4364 25.3257 93.1526 26.6123C91.9315 27.8363 91.9628 27.8363 86.4519 27.8363C81.0976 27.8363 81.0036 27.8363 79.9077 26.8006C79.4381 26.3927 79.0936 25.9219 78.8744 25.3884C78.5613 24.6666 78.53 24.5097 78.5926 23.223C78.6239 21.9677 78.6553 21.7794 79.0623 21.0263C80.0956 19.0805 82.444 17.7625 86.1075 17.0407L87.6417 16.7582H84.1035C82.0369 16.7582 80.4087 16.6955 80.2209 16.6327C79.6886 16.413 79.0623 15.8168 78.8118 15.2519C78.3735 14.279 78.5926 13.0865 79.4381 12.3019C80.1895 11.5801 80.3461 11.5801 86.1075 11.6115L91.3992 11.6429L92.0567 11.9881ZM109.278 11.7056C111.188 12.0195 112.535 13.3375 112.879 15.2519C113.067 16.2247 113.067 23.3172 112.879 24.2587C112.597 25.6709 111.783 26.7693 110.531 27.4283L109.842 27.8049H104.895H99.9473L99.1019 27.3341C98.5383 27.0517 98.0999 26.6751 97.7868 26.2357C96.8787 25.0746 96.8474 24.9177 96.8161 20.2417C96.7535 15.8481 96.8474 14.9694 97.3171 14.0279C97.912 12.8668 98.9766 12.0508 100.26 11.7684C101.168 11.5487 108.12 11.5173 109.278 11.7056ZM138.868 11.9253C139.056 12.0822 139.338 12.3647 139.525 12.6157C139.807 13.0551 139.807 13.0865 139.807 17.6683V22.2816H142.688H145.6L145.631 17.7311C145.663 12.7413 145.663 12.7413 146.508 12.0508C147.228 11.4546 149.013 11.4232 149.89 11.9881C150.798 12.5844 150.766 12.4902 150.735 18.9864L150.704 24.7922L150.359 25.4512C149.89 26.3613 148.919 27.2086 148.042 27.5538C147.322 27.8049 147.103 27.8363 142.751 27.8363C138.461 27.8363 138.148 27.8363 137.49 27.5852C136.551 27.2086 135.611 26.2985 135.142 25.3257L134.766 24.5411V18.8609C134.766 12.6785 134.766 12.8354 135.517 12.1136C135.956 11.6743 136.457 11.5801 137.584 11.6115C138.273 11.6429 138.617 11.7056 138.868 11.9253ZM168.395 12.0195C169.178 12.4902 169.366 12.8668 169.397 14.1849C169.428 15.2519 169.397 15.4088 169.146 15.8168C168.99 16.0678 168.677 16.3816 168.489 16.5385C168.144 16.7896 167.957 16.821 163.479 16.8524L158.845 16.8838V19.7709V22.6581L163.385 22.6895C167.643 22.7209 167.957 22.7523 168.364 22.972C169.146 23.4427 169.334 23.8193 169.366 25.1374C169.397 26.2044 169.366 26.3613 169.115 26.7693C168.958 27.0203 168.645 27.3341 168.458 27.491C168.082 27.7735 167.988 27.7735 162.133 27.7735H156.183L155.494 27.3969C154.649 26.9262 153.991 26.2044 153.553 25.2629L153.209 24.5411L153.24 20.0848C153.209 15.9109 153.209 15.5971 153.459 14.7811C153.741 13.8397 154.492 12.8354 155.338 12.3333C156.309 11.737 156.81 11.6743 162.571 11.7056C167.675 11.7684 167.957 11.7684 168.395 12.0195ZM73.3009 18.4843C74.209 18.4843 74.4595 18.4215 75.1483 18.0763L75.9624 17.6683L75.9311 22.0305L75.8998 26.3927L75.4928 26.8948C74.8665 27.6793 74.3969 27.8676 73.1757 27.8049C72.2677 27.7735 72.0798 27.7421 71.6414 27.3969C70.7021 26.6751 70.6708 26.4868 70.6708 21.8108V17.6683L71.4849 18.0763C72.1424 18.4215 72.3929 18.4843 73.3009 18.4843ZM144.504 29.2171C145.913 30.1899 145.976 32.3553 144.661 33.4537C143.502 34.3952 142.093 34.3324 141.028 33.2968L140.465 32.7633V36.8117V40.86H138.586H136.707V39.4792C136.707 37.9728 136.676 38.0042 136.206 39.793L135.925 40.86H134.14H132.355L132.104 39.793L131.854 38.726V39.793V40.86H128.159H124.464L124.183 39.9499L123.901 39.0398H122.617H121.333L121.051 39.9499L120.77 40.86H116.699H112.629L111.752 38.8201L110.875 36.7803V38.8201V40.86H108.934H106.992V35.3053V29.7506L109.403 29.782L111.814 29.8134L112.66 31.7277L113.505 33.642L113.568 31.7277L113.631 29.8134L115.509 29.782L117.419 29.7506L117.451 33.9558L117.482 38.1611L119.047 33.9872L120.613 29.8447H122.711H124.809L126.343 33.9245L127.877 38.0042L127.909 33.8617L127.94 29.7506L130.664 29.782L133.388 29.8134L133.764 31.508C133.983 32.4495 134.202 33.2341 134.234 33.2341C134.265 33.2341 134.484 32.4495 134.672 31.508L135.048 29.8134L137.678 29.782C139.557 29.7506 140.34 29.782 140.402 29.9075C140.465 30.0017 140.527 29.9703 140.621 29.782C140.84 29.374 141.498 28.9346 142.156 28.7777C143.001 28.5894 143.846 28.7464 144.504 29.2171ZM75.5241 30.6293C75.6806 31.1314 76.0251 32.2612 76.2756 33.1713L76.7766 34.8346L77.5907 32.2926L78.4048 29.7506H82.0682H85.7317V35.3053V40.86H83.6651H81.5986V36.8117V32.7947L81.0976 34.1441C80.8158 34.8973 80.1895 36.6861 79.6572 38.1611L78.7179 40.86H76.62C75.4615 40.86 74.5221 40.8286 74.5221 40.7972C74.5221 40.7659 73.708 38.3494 72.706 35.4308C71.704 32.5123 70.8899 30.033 70.8899 29.9389C70.8899 29.782 71.297 29.7506 73.0818 29.7506H75.2736L75.5241 30.6293ZM103.36 31.508V33.2654H101.951H100.542V37.0627V40.86H98.4756H96.409V37.0627V33.2654H93.1839C90.3972 33.2654 89.9588 33.2968 89.9588 33.4537C89.9588 33.6106 90.2719 33.642 92.0254 33.642H94.092L94.0607 35.3367L94.0293 37.0313L91.9941 37C90.0214 36.9686 89.9588 36.9686 89.9588 37.2196C89.9588 37.4707 90.0214 37.5021 92.2133 37.5021H94.4677V39.1653L94.499 40.8286H90.178H85.857V35.2739V29.7506H94.6243H103.392V31.508H103.36Z" fill="#126495"/>
<path id="Vector_3" d="M121.146 19.4886V22.2816H124.058H126.97V19.52V16.7583H124.058H121.146V19.4886Z" fill="#126495"/>
<path id="Vector_4" d="M86.4519 19.5512L83.6338 22.2187L86.4519 22.2501C87.9861 22.2501 89.2699 22.2501 89.3012 22.2501C89.3325 22.2187 89.3325 21.0261 89.3012 19.5512L89.2699 16.915L86.4519 19.5512Z" fill="#126495"/>
<path id="Vector_5" d="M107.744 35.368V40.0754H108.84H109.936L109.967 37.251C109.998 33.1085 109.998 33.1085 110.092 33.0457C110.155 32.983 110.875 34.6148 112.91 39.5105L113.13 40.0754H114.883H116.636V35.368V30.6606H115.541H114.445V34.1441C114.445 36.1526 114.382 37.5962 114.319 37.5648C114.257 37.5334 113.537 35.9643 112.754 34.0813L111.282 30.6606H109.529H107.744V35.368Z" fill="#ED1C24"/>
<path id="Vector_6" d="M121.02 31.006C120.957 31.1943 120.143 33.2969 119.267 35.6506C118.39 38.0043 117.638 39.9814 117.638 40.0128C117.638 40.0442 118.202 40.0755 118.86 40.0755H120.081L120.363 39.1654L120.644 38.2553H122.554H124.464L124.746 39.1654L125.028 40.0755H126.406H127.783L126.688 37.1883C126.093 35.6192 125.31 33.5166 124.934 32.5123L124.245 30.6922L122.711 30.6608L121.145 30.6294L121.02 31.006ZM123.181 34.2384C123.462 35.1485 123.713 36.0272 123.776 36.1841C123.869 36.4665 123.838 36.4665 122.648 36.4665C121.678 36.4665 121.427 36.4352 121.427 36.2782C121.427 36.09 122.429 32.732 122.554 32.5437C122.617 32.3868 122.68 32.5123 123.181 34.2384Z" fill="#ED1C24"/>
<path id="Vector_7" d="M122.492 35.4307C122.46 35.4935 122.492 35.5562 122.555 35.5562C122.617 35.5562 122.711 35.4935 122.711 35.4307C122.711 35.3679 122.68 35.3052 122.649 35.3052C122.586 35.3052 122.523 35.3679 122.492 35.4307Z" fill="#010101"/>
<path id="Vector_8" d="M128.848 35.3679V40.0753H129.881H130.915V36.0269C130.915 33.8301 130.977 32.1041 131.04 32.1983C131.103 32.2924 131.572 34.1126 132.105 36.2152L133.044 40.0753H134.14H135.236L136.238 36.3721C136.77 34.3323 137.271 32.5435 137.334 32.4179C137.396 32.261 137.459 33.7046 137.459 36.1211V40.1067H138.555H139.651V35.3993V30.6919H137.678H135.705L134.985 33.8301C134.609 35.5876 134.265 36.9684 134.202 36.937C134.14 36.9056 133.827 35.4934 133.42 33.7988L132.699 30.7547L130.727 30.7233L128.754 30.6919L128.848 35.3679Z" fill="#ED1C24"/>
<path id="Vector_9" d="M73.5515 35.3366L75.1484 40.0126H76.6514H78.1856L79.8138 35.3366L81.4421 30.6606L80.2209 30.692L78.9997 30.7234L77.9038 34.1441L76.7766 37.5648L76.4948 36.6547C76.3382 36.1526 75.8686 34.6148 75.4615 33.234L74.71 30.7234L73.3323 30.692L71.9546 30.6606L73.5515 35.3366Z" fill="#ED1C24"/>
<path id="Vector_10" d="M82.5066 35.368V40.0754H83.7278H84.9489V35.368V30.6606H83.7278H82.5066V35.368Z" fill="#ED1C24"/>
<path id="Vector_11" d="M86.7336 35.3682V40.0755H90.1466H93.5596V39.1654V38.2867H91.3678H89.176V37.2511V36.2155H91.1799H93.1839V35.3054V34.3953H91.1799H89.176V33.4224V32.4496H91.3678H93.5596V31.5395V30.6294H90.1466H86.7336V35.3682Z" fill="#ED1C24"/>
<path id="Vector_12" d="M94.3426 31.2883C94.3426 32.5122 94.3113 32.4808 95.8456 32.4808H97.192V36.2781V40.0754H98.4131H99.6343V36.2781V32.4808L101.075 32.4494L102.515 32.4181L102.546 31.5394L102.578 30.6606H98.4444H94.3113V31.2883H94.3426Z" fill="#ED1C24"/>
<path id="Vector_13" d="M81.2229 50.2747C81.2229 51.1848 81.1602 51.938 81.0976 51.938C81.035 51.938 80.9097 51.8439 80.8158 51.7183C80.1896 50.9965 78.2795 50.7769 77.121 51.3731C74.8666 52.5029 74.1464 55.4215 75.5554 57.6496C76.213 58.6539 77.5281 59.4384 78.624 59.4384C79.2815 59.4384 80.3148 59.0305 80.8158 58.5597L81.3168 58.1204V58.6539V59.1874H82.1622H83.0076V53.8837V48.5801H82.0996H81.1915V50.2747H81.2229ZM80.4087 53.3188C81.4733 54.1348 81.5986 55.7353 80.6906 56.7709C79.2502 58.4028 76.714 57.3986 76.714 55.1704C76.714 53.2247 78.8432 52.1577 80.4087 53.3188Z" fill="#126495"/>
<path id="Vector_14" d="M124.089 49.9608V51.3102H123.65H123.212V52.0948V52.8794H123.65H124.089V56.049V59.2186H124.997H125.905V56.049V52.8794H126.5H127.095V52.0948V51.3102L126.562 51.2788L125.999 51.2475L125.967 49.9294L125.936 48.6113H125.059H124.151V49.9608H124.089Z" fill="#ED1C24"/>
<path id="Vector_15" d="M53.3867 49.6473V50.3063H54.1069H54.8271V49.6473V48.9883H54.1069H53.3867V49.6473Z" fill="#126495"/>
<path id="Vector_16" d="M59.5551 51.0592C58.7097 51.2161 58.0208 51.5927 57.3946 52.2831C56.4865 53.2559 56.1734 54.4485 56.3926 55.9548C56.7996 58.9362 60.0874 60.4425 62.2479 58.591C62.8115 58.1202 62.9054 58.1516 62.8741 58.8106C62.8428 59.1872 62.8741 59.1872 63.6882 59.1872H64.5337V55.2017V51.2475H63.6882H62.8428V51.6554C62.8428 51.8751 62.8115 52.1262 62.8115 52.1575C62.8115 52.2203 62.5923 52.032 62.3105 51.781C61.5903 51.1533 60.6197 50.9022 59.5551 51.0592ZM61.5903 53.099C62.5923 53.5698 63.062 55.1075 62.561 56.2687C61.9974 57.5553 60.3379 58.0261 59.1793 57.2101C58.4905 56.708 58.1774 56.1117 58.1774 55.2958C58.1774 53.8836 59.1167 52.8793 60.4631 52.8793C60.8389 52.8793 61.3399 52.9735 61.5903 53.099Z" fill="#126495"/>
<path id="Vector_17" d="M69.2305 51.0907C67.1326 51.4045 65.7549 53.0992 65.7549 55.2646C65.7549 56.9278 66.569 58.2459 68.072 58.9677C69.7315 59.7836 71.6102 59.4698 72.8627 58.089C73.7081 57.1789 73.9586 56.4885 73.9586 55.2018C73.9586 54.2603 73.896 54.0093 73.5828 53.3816C72.7687 51.7183 71.0153 50.7769 69.2305 51.0907ZM71.1718 53.2561C72.3304 54.072 72.4869 55.7981 71.4536 56.8651C70.0133 58.3714 67.571 57.3672 67.571 55.2332C67.571 54.9194 67.6336 54.4486 67.7588 54.2289C67.978 53.7268 68.7608 53.005 69.2305 52.9109C69.4184 52.8795 69.6375 52.8167 69.7002 52.8167C69.9507 52.754 70.8274 53.005 71.1718 53.2561Z" fill="#126495"/>
<path id="Vector_18" d="M45.6527 51.4987C44.1811 52.2519 43.3983 53.7269 43.4922 55.4529C43.6488 57.6811 45.3396 59.3757 47.4062 59.3757C48.2829 59.3757 48.8465 59.156 49.5041 58.497L49.9111 58.089V58.4029C49.9111 58.9364 49.4414 59.7837 48.9718 60.0661C47.9698 60.6938 46.9678 60.7252 46.0911 60.1289C45.684 59.8778 45.4648 59.8151 44.5881 59.8151H43.5861L43.8366 60.3172C44.1497 60.9448 44.9952 61.698 45.7467 62.0432C46.6547 62.4512 48.189 62.4512 49.1283 62.0119C50.0677 61.5725 50.6626 61.039 51.1323 60.1917L51.508 59.5012L51.5393 55.3274L51.5706 51.1535L50.7565 51.1849L49.9424 51.2163L49.8798 51.7184L49.8172 52.2205L49.598 51.8439C49.2223 51.3104 48.4395 50.9966 47.3435 50.9966C46.5921 51.0593 46.3416 51.1221 45.6527 51.4987ZM48.69 53.0992C48.8465 53.162 49.097 53.413 49.2849 53.6013C50.3495 54.7625 50.0051 56.6768 48.5647 57.3986C46.5294 58.4029 44.4002 55.8295 45.7153 53.9152C46.4042 52.8795 47.6567 52.5343 48.69 53.0992Z" fill="#126495"/>
<path id="Vector_19" d="M95.3759 51.279C94.5304 51.5928 93.278 52.8795 92.9962 53.7582C92.7144 54.6997 92.777 56.1747 93.184 57.022C93.5911 57.8694 94.3739 58.6225 95.2193 59.0305C95.8142 59.313 96.1587 59.3757 96.9101 59.3757C98.0687 59.3757 98.9141 59.0619 99.7282 58.2459C100.198 57.8066 100.793 56.9279 100.793 56.6768C100.793 56.6454 100.354 56.6141 99.8221 56.6141C98.9141 56.6141 98.8202 56.6454 98.4131 56.9906C97.7869 57.5242 97.098 57.7124 96.4092 57.4928C95.6264 57.2731 95.2193 56.9279 94.9062 56.3002C94.4052 55.2646 94.687 53.8524 95.5011 53.2561C96.0021 52.9109 96.8475 52.7226 97.3798 52.8482C97.8495 52.9423 98.4444 53.3189 98.601 53.5699C98.6636 53.6641 99.0393 53.7269 99.7282 53.7582C100.668 53.7896 100.761 53.7582 100.73 53.5386C100.605 52.8168 99.6343 51.8439 98.601 51.3418C97.7556 50.9966 96.2839 50.9652 95.3759 51.279Z" fill="#126495"/>
<path id="Vector_20" d="M108.84 51.2789C108.621 51.373 108.339 51.5927 108.182 51.7496L107.901 52.0007V51.6555C107.901 51.3103 107.901 51.3103 107.055 51.3103H106.21V55.2331V59.1559H107.086H107.994L108.026 56.5512C108.057 53.7267 108.12 53.507 108.84 53.0363C109.247 52.7539 110.124 52.7539 110.531 53.0363C111.126 53.4443 111.22 53.915 111.22 56.6453V59.1873L112.128 59.1559L113.036 59.1245V56.2059V53.2874L112.66 52.5656C112.378 52.0007 112.159 51.7496 111.595 51.4358C111 51.0592 110.781 51.0278 110.061 51.0278C109.56 51.0906 109.059 51.1534 108.84 51.2789Z" fill="#ED1C24"/>
<path id="Vector_21" d="M117.044 51.2789C116.292 51.53 115.259 52.5029 114.852 53.3188C114.445 54.1034 114.319 55.5783 114.539 56.4571C115.134 58.7166 117.826 60.0347 119.956 59.1246C120.926 58.7166 121.834 57.8693 122.053 57.1475C122.147 56.865 122.116 56.865 121.239 56.865C120.519 56.865 120.237 56.9278 119.956 57.1161C119.768 57.273 119.298 57.4299 118.985 57.5241C118.108 57.7437 117.419 57.5241 116.824 56.865C116.01 55.9549 115.979 55.9549 119.361 55.9549H122.367L122.46 55.4528C122.711 53.8837 121.427 51.7811 119.862 51.2476C119.141 50.9965 117.764 51.0279 117.044 51.2789ZM119.611 53.0677C120.018 53.2874 120.613 53.9778 120.613 54.2289C120.613 54.3858 120.237 54.4172 118.484 54.4172C116.136 54.4172 116.073 54.3858 116.699 53.664C117.106 53.1933 117.419 53.005 118.046 52.8794C118.578 52.7539 119.141 52.8481 119.611 53.0677Z" fill="#ED1C24"/>
<path id="Vector_22" d="M142.719 51.2789C142.5 51.3731 142.218 51.5928 142.062 51.7497L141.78 52.0321V51.6242V51.2162H140.903H140.058V55.2331V59.2501H140.966H141.874V56.8964C141.874 55.6097 141.936 54.323 141.999 54.072C142.375 52.6912 144.379 52.5029 144.911 53.7895C145.036 54.1034 145.099 54.8879 145.099 56.7395V59.2501H146.069H147.071L147.009 56.3315C146.946 53.4443 146.946 53.413 146.57 52.6912C146.289 52.0949 146.069 51.8752 145.506 51.53C144.911 51.1848 144.692 51.122 143.972 51.122C143.439 51.0593 142.938 51.1534 142.719 51.2789Z" fill="#126495"/>
<path id="Vector_23" d="M53.2615 55.202V59.219H54.1695H55.0776V55.202V51.1851H54.1695H53.2615V55.202Z" fill="#126495"/>
<path id="Vector_24" d="M84.5732 53.9152C84.5732 57.179 84.6359 57.587 85.45 58.4343C86.0449 59.0306 86.9843 59.4386 87.7044 59.4386C88.268 59.4386 88.9882 59.1561 89.3639 58.7795C89.5831 58.5599 89.771 58.4029 89.8023 58.4029C89.8336 58.4029 89.8649 58.5599 89.8649 58.7795V59.1561H90.7104H91.5558V55.1392V51.1222H90.679H89.8023L89.7397 53.6014C89.6771 56.2376 89.5831 56.7397 88.9882 57.2418C88.769 57.4301 88.5185 57.4929 88.0802 57.4929C87.5479 57.4929 87.3913 57.4301 87.0782 57.0849C86.5146 56.5514 86.4519 56.0493 86.4206 53.3817V51.0908H85.5126H84.6046V53.9152H84.5732Z" fill="#126495"/>
<path id="Vector_25" d="M131.541 51.7182C131.666 52.032 132.386 53.8208 133.138 55.7038L134.515 59.1245L135.236 59.1558L135.956 59.1872L137.521 55.233C138.398 53.0676 139.087 51.2788 139.087 51.2474C139.087 51.2161 138.649 51.1847 138.116 51.1847C136.958 51.1847 137.208 50.8395 136.081 54.1346L135.267 56.5197L134.735 54.982C134.453 54.1346 134.014 52.9421 133.795 52.3144L133.388 51.1847H132.386H131.384L131.541 51.7182Z" fill="#126495"/>
<path id="Vector_26" d="M102.452 58.2146V59.1874H103.423H104.393V58.2146V57.2417H103.423H102.452V58.2146Z" fill="#ED1C24"/>
<path id="Vector_27" d="M128.347 58.2146V59.1874H129.318H130.289V58.2146V57.2417H129.318H128.347V58.2146Z" fill="#ED1C24"/>
<path id="Vector_28" d="M101.951 19.4887V22.2818H104.926H107.9L107.869 19.5201L107.838 16.7898L104.926 16.7584L101.982 16.7271V19.4887H101.951Z" fill="#126495"/>
</g>
<g id="Group_2">
<g id="Group_3">
<path id="Vector_29" d="M22.6698 66.4371V72.337H22.0122V66.4371H20.5093V65.8408H24.1414V66.4371H22.6698Z" fill="#AF1F24"/>
<path id="Vector_30" d="M29.0887 72.3367V71.4894H29.0574C28.6503 72.117 28.0241 72.4623 27.1787 72.4623C26.4585 72.4623 25.8322 72.2112 25.3626 71.7405C24.8616 71.2697 24.6111 70.6421 24.6111 69.9203C24.6111 69.1985 24.8616 68.6022 25.3626 68.1315C25.8636 67.6607 26.4585 67.4097 27.1787 67.4097C28.0241 67.4097 28.6503 67.7235 29.0574 68.3825H29.0887V67.5352H29.7149V72.3367H29.0887ZM28.5564 68.5394C28.1806 68.1628 27.711 67.9432 27.1787 67.9432C26.615 67.9432 26.1454 68.1315 25.7696 68.5081C25.3939 68.8846 25.206 69.3554 25.206 69.9203C25.206 70.4852 25.3939 70.9559 25.7696 71.3325C26.1454 71.7091 26.615 71.8974 27.1787 71.8974C27.711 71.8974 28.1806 71.7091 28.5564 71.3325C28.9321 70.9559 29.12 70.4852 29.12 69.9516C29.12 69.4181 28.9321 68.9474 28.5564 68.5394ZM26.8342 74V72.9016H27.4918V74H26.8342Z" fill="#AF1F24"/>
<path id="Vector_31" d="M35.1633 71.7405C34.6623 72.2112 34.0673 72.4623 33.3472 72.4623C32.5331 72.4623 31.9068 72.1484 31.4685 71.4894H31.4371V74.0314H30.8109V67.5352H31.4371V68.3825H31.4685C31.9068 67.7235 32.5331 67.4097 33.3472 67.4097C34.0673 67.4097 34.6623 67.6607 35.1633 68.1315C35.6642 68.6022 35.9147 69.2299 35.9147 69.9203C35.9147 70.6421 35.6642 71.2383 35.1633 71.7405ZM34.7562 68.5394C34.3805 68.1628 33.9108 67.9746 33.3472 67.9746C32.8149 67.9746 32.3452 68.1628 31.9694 68.5708C31.5937 68.9474 31.4058 69.4181 31.4058 69.9516C31.4058 70.4852 31.5937 70.9559 31.9694 71.3325C32.3452 71.7091 32.8149 71.8974 33.3472 71.8974C33.9108 71.8974 34.3805 71.7091 34.7562 71.3325C35.1319 70.9559 35.3198 70.4852 35.3198 69.9203C35.2885 69.3868 35.1006 68.916 34.7562 68.5394Z" fill="#AF1F24"/>
<path id="Vector_32" d="M44.087 70.9249C43.5547 71.9605 42.7719 72.4626 41.7073 72.4626C40.9872 72.4626 40.3922 72.2116 39.8913 71.7408C39.3903 71.2701 39.1398 70.6424 39.1398 69.952C39.1398 69.2616 39.3903 68.6339 39.8913 68.1632C40.3922 67.6611 40.9872 67.4414 41.7073 67.4414C42.2396 67.4414 42.7093 67.5669 43.1477 67.8494C43.586 68.1318 43.8992 68.5084 44.087 69.0105H43.3982C43.0537 68.3201 42.4901 67.9749 41.7073 67.9749C41.1437 67.9749 40.674 68.1632 40.2983 68.5398C39.9226 68.9164 39.7034 69.3871 39.7034 69.9206C39.7034 70.4855 39.8913 70.9563 40.267 71.3328C40.6427 71.7094 41.1124 71.8977 41.676 71.8977C42.4588 71.8977 43.0224 71.5839 43.3669 70.9249H44.087Z" fill="#AF1F24"/>
<path id="Vector_33" d="M48.6273 72.3369V69.7007C48.6273 69.4497 48.596 69.1986 48.5334 68.9789C48.4707 68.7279 48.3455 68.5082 48.1889 68.3827C47.9071 68.1002 47.5627 67.9747 47.1556 67.9747C46.7486 67.9747 46.4041 68.1002 46.1223 68.3827C45.9658 68.5396 45.8405 68.7279 45.7779 68.9789C45.7153 69.1986 45.684 69.4183 45.684 69.6694V72.3683H45.0577V65.8721H45.684V68.1944H45.7153C46.0284 67.6923 46.5294 67.4412 47.1869 67.4412C47.8445 67.4412 48.3768 67.6609 48.7525 68.1002C49.097 68.5082 49.2848 69.0731 49.2848 69.7321V72.3683H48.6273V72.3369Z" fill="#AF1F24"/>
<path id="Vector_34" d="M50.4121 66.9076L50.1302 66.4055L51.8837 65.4326L52.1655 65.9661L50.4121 66.9076ZM50.4434 72.3368V67.5352H51.0696V72.3368H50.4434Z" fill="#AF1F24"/>
<path id="Vector_35" d="M58.9289 72.337V71.4897H58.8976C58.4592 72.1173 57.833 72.4625 57.0189 72.4625C56.2987 72.4625 55.6725 72.2115 55.2028 71.7407C54.7018 71.27 54.4513 70.6423 54.4513 69.9205C54.4513 69.1988 54.7018 68.6025 55.2028 68.1317C55.7038 67.661 56.2987 67.4099 57.0189 67.4099C57.833 67.4099 58.4592 67.7238 58.8976 68.3514H58.9289V65.8408H59.5551V72.337H58.9289ZM58.4279 68.5397C58.0522 68.1631 57.5825 67.9434 57.0502 67.9434C56.4866 67.9434 56.0169 68.1317 55.6411 68.5083C55.2654 68.8849 55.0775 69.3557 55.0775 69.9205C55.0775 70.4854 55.2654 70.9562 55.6411 71.3328C56.0169 71.7094 56.4866 71.8976 57.0502 71.8976C57.5825 71.8976 58.0522 71.7094 58.4279 71.3328C58.8036 70.9562 58.9915 70.4854 58.9915 69.9519C58.9915 69.4184 58.8036 68.9477 58.4279 68.5397ZM60.0874 66.4999V67.0961H57.4259V66.4999H60.0874Z" fill="#AF1F24"/>
<path id="Vector_36" d="M60.745 66.9392V65.8408H61.3712V66.9392H60.745ZM60.745 72.337V67.5355H61.3712V72.337H60.745Z" fill="#AF1F24"/>
<path id="Vector_37" d="M67.2891 70.1716H62.9368C62.9681 70.6423 63.156 71.0503 63.5317 71.3955C63.9074 71.7407 64.3145 71.8976 64.7842 71.8976C65.1599 71.8976 65.5043 71.8035 65.8175 71.5838C66.1306 71.3641 66.3811 71.0816 66.5063 70.7364H67.1639C66.976 71.2386 66.6942 71.6465 66.2558 71.9604C65.8175 72.2742 65.3478 72.4311 64.8155 72.4311C64.1266 72.4311 63.5317 72.18 63.0307 71.6779C62.561 71.1758 62.3105 70.6109 62.3105 69.9205C62.3105 69.2301 62.561 68.6338 63.0307 68.1317C63.5317 67.6296 64.0953 67.3785 64.7842 67.3785C65.473 67.3785 66.068 67.6296 66.569 68.1317C67.0699 68.6338 67.2891 69.2301 67.2891 69.9519V70.1716ZM66.6942 69.6067C66.6003 69.1359 66.4124 68.728 66.068 68.4455C65.7235 68.1317 65.3165 67.9748 64.8155 67.9748C64.3458 67.9748 63.9388 68.1317 63.563 68.4455C63.2186 68.7593 62.9994 69.1359 62.9368 69.6067H66.6942ZM65.5983 66.7195L64.8468 66.0918L64.064 66.7195H63.2499L64.5337 65.6211H65.0973L66.3498 66.7195H65.5983ZM64.4711 74.0002V72.9018H65.1286V74.0002H64.4711Z" fill="#AF1F24"/>
<path id="Vector_38" d="M71.8919 72.3371V69.701C71.8919 69.4499 71.8606 69.1988 71.798 68.9792C71.7354 68.7281 71.6101 68.5084 71.4536 68.3829C71.1718 68.1004 70.8273 67.9749 70.4203 67.9749C70.0132 67.9749 69.6688 68.1004 69.387 68.3829C69.2304 68.5398 69.1052 68.7281 69.0426 68.9792C68.9799 69.1988 68.9486 69.4185 68.9486 69.6696V72.3685H68.3224V67.5669H68.9486V68.1946H68.9799C69.2931 67.6925 69.794 67.4414 70.4516 67.4414C71.1091 67.4414 71.6414 67.6611 72.0172 68.1004C72.3616 68.5084 72.5495 69.0733 72.5495 69.7323V72.3685H71.8919V72.3371Z" fill="#AF1F24"/>
<path id="Vector_39" d="M77.3089 68.1004V72.337H76.6826V68.1004H75.6807V67.5355H76.6826V65.8408H77.3089V67.5355H78.4674V68.1004H77.3089Z" fill="#AF1F24"/>
<path id="Vector_40" d="M83.3207 68.2571V72.3368H82.7571V71.5837H82.7258C82.6006 71.8661 82.3814 72.0858 82.0996 72.2427C81.8491 72.3682 81.5359 72.4624 81.1915 72.4624C80.4713 72.4624 79.9077 72.2113 79.532 71.7406C79.3754 71.5523 79.2502 71.3012 79.1876 71.0188C79.1249 70.7991 79.0936 70.5167 79.0936 70.2028V67.5667H79.7199V70.2028C79.7199 70.7363 79.8138 71.1443 80.033 71.4268C80.2835 71.7406 80.6592 71.9289 81.1602 71.9289C81.5673 71.9289 81.9117 71.8033 82.1935 71.5523C82.3814 71.364 82.5379 71.1443 82.6005 70.8932C82.6632 70.705 82.6945 70.4225 82.6945 70.1087V67.5667H83.3207V67.7236C83.3207 67.7236 83.3207 67.7236 83.352 67.6922C83.446 67.5981 83.5086 67.5039 83.5399 67.3784H83.2894V66.5938H84.0409V67.3784C84.0096 67.5039 83.9783 67.6295 83.947 67.7236C83.9156 67.8178 83.853 67.8805 83.7904 67.9433C83.7278 68.0061 83.6651 68.0688 83.6025 68.1002C83.5086 68.163 83.446 68.1944 83.3207 68.2571ZM82.0996 66.1545C82.0683 66.1859 82.0369 66.2173 82.0056 66.28L81.943 66.3428L81.7551 66.4997C81.7238 66.5311 81.6925 66.5938 81.6612 66.6252C81.5986 66.688 81.5673 66.8135 81.5673 67.0018H81.035V66.8763C81.035 66.7194 81.0663 66.5938 81.1602 66.4369C81.1915 66.4055 81.2228 66.3428 81.2855 66.28C81.3168 66.2486 81.3481 66.2173 81.4107 66.1545L81.5359 66.029C81.5673 65.9976 81.5986 65.9348 81.6299 65.9034C81.6612 65.8407 81.6925 65.7779 81.6925 65.6838C81.6925 65.5582 81.6612 65.4641 81.5673 65.4013C81.4733 65.3385 81.4107 65.2758 81.3168 65.2758C81.1915 65.2758 81.0663 65.3385 81.0036 65.4641C80.9723 65.4955 80.941 65.5582 80.941 65.621C80.941 65.6524 80.941 65.7465 80.941 65.872H80.3774V65.7151C80.3774 65.4955 80.4713 65.2758 80.6592 65.0875C80.8471 64.9306 81.0663 64.8364 81.3168 64.8364C81.5673 64.8364 81.7864 64.9306 81.9743 65.0875C82.1622 65.2758 82.2248 65.4641 82.2248 65.6838C82.1935 65.9034 82.1622 66.029 82.0996 66.1545Z" fill="#AF1F24"/>
<path id="Vector_41" d="M93.685 69.3556C93.6224 70.2343 93.2466 70.9875 92.5891 71.5837C91.9315 72.18 91.1487 72.4624 90.272 72.4624C89.3326 72.4624 88.5185 72.1486 87.8297 71.4896C87.1408 70.8306 86.7964 70.0146 86.7964 69.1045C86.7964 68.163 87.1408 67.3785 87.8297 66.7194C88.5185 66.0604 89.3326 65.7466 90.272 65.7466C91.3366 65.7466 92.2133 66.1546 92.9335 66.9391C93.1214 67.1588 93.2466 67.3785 93.3406 67.5981H92.5891C92.3699 67.2216 92.0255 66.9077 91.5871 66.6567C91.18 66.437 90.7417 66.3115 90.272 66.3115C89.4892 66.3115 88.8316 66.5939 88.268 67.1274C87.7044 67.6609 87.4226 68.3199 87.4226 69.1045C87.4226 69.8891 87.7044 70.5481 88.268 71.0816C88.8316 71.6151 89.4892 71.8662 90.272 71.8662C90.8669 71.8662 91.3992 71.6779 91.9002 71.3327C92.4325 70.9561 92.7456 70.5167 92.9022 69.9518H89.27V69.3556H93.685Z" fill="#AF1F24"/>
<path id="Vector_42" d="M94.687 66.9392V65.8408H95.3132V66.9392H94.687ZM94.687 72.337V67.5355H95.3132V72.337H94.687Z" fill="#AF1F24"/>
<path id="Vector_43" d="M100.762 72.3368V71.4894H100.73C100.323 72.1171 99.6969 72.4623 98.8515 72.4623C98.1313 72.4623 97.5051 72.2112 97.0354 71.7405C96.5344 71.2698 96.2839 70.6421 96.2839 69.9203C96.2839 69.1985 96.5344 68.6023 97.0354 68.1315C97.5364 67.6608 98.1313 67.4097 98.8515 67.4097C99.6969 67.4097 100.323 67.7235 100.73 68.3826H100.762V67.5352H101.388V72.3368H100.762ZM100.229 68.5395C99.8535 68.1629 99.3838 67.9432 98.8515 67.9432C98.2879 67.9432 97.8182 68.1315 97.4425 68.5081C97.0667 68.8847 96.8789 69.3554 96.8789 69.9203C96.8789 70.4852 97.0667 70.9559 97.4425 71.3325C97.8182 71.7091 98.2879 71.8974 98.8515 71.8974C99.3838 71.8974 99.8535 71.7091 100.229 71.3325C100.605 70.9559 100.793 70.4852 100.793 69.9517C100.793 69.4182 100.605 68.9475 100.229 68.5395ZM98.2566 66.9076L97.9748 66.4055L99.7282 65.4326L100.01 65.9661L98.2566 66.9076Z" fill="#AF1F24"/>
<path id="Vector_44" d="M106.585 71.7091C106.084 72.2112 105.489 72.4623 104.801 72.4623C104.112 72.4623 103.548 72.2112 103.047 71.7091C102.546 71.207 102.296 70.6421 102.296 69.9516C102.296 69.2612 102.546 68.665 103.016 68.1628C103.517 67.6607 104.08 67.4097 104.801 67.4097C105.489 67.4097 106.084 67.6607 106.554 68.1628C107.024 68.665 107.306 69.2612 107.306 69.9516C107.337 70.6107 107.086 71.207 106.585 71.7091ZM106.178 68.5394C105.803 68.1628 105.364 67.9746 104.832 67.9746C104.3 67.9746 103.83 68.1628 103.485 68.5708C103.141 68.9474 102.953 69.4181 102.953 69.9516C102.953 70.4852 103.141 70.9245 103.517 71.3011C103.893 71.6777 104.331 71.866 104.863 71.866C105.396 71.866 105.865 71.6777 106.21 71.2697C106.554 70.8931 106.742 70.4224 106.742 69.8575C106.711 69.3868 106.523 68.916 106.178 68.5394Z" fill="#AF1F24"/>
<path id="Vector_45" d="M115.008 72.337V71.4897H114.977C114.539 72.1173 113.912 72.4625 113.098 72.4625C112.378 72.4625 111.752 72.2115 111.282 71.7407C110.781 71.27 110.531 70.6423 110.531 69.9205C110.531 69.1988 110.781 68.6025 111.282 68.1317C111.783 67.661 112.378 67.4099 113.098 67.4099C113.912 67.4099 114.539 67.7238 114.977 68.3514H115.008V65.8408H115.635V72.337H115.008ZM114.476 68.5397C114.1 68.1631 113.631 67.9434 113.098 67.9434C112.535 67.9434 112.065 68.1317 111.689 68.5083C111.314 68.8849 111.126 69.3557 111.126 69.9205C111.126 70.4854 111.314 70.9562 111.689 71.3328C112.065 71.7094 112.535 71.8976 113.098 71.8976C113.631 71.8976 114.1 71.7094 114.476 71.3328C114.852 70.9562 115.04 70.4854 115.04 69.9519C115.04 69.4184 114.852 68.9477 114.476 68.5397Z" fill="#AF1F24"/>
<path id="Vector_46" d="M120.425 72.337V71.5839H120.394C120.269 71.8663 120.049 72.086 119.768 72.2429C119.517 72.3684 119.204 72.4626 118.86 72.4626C118.139 72.4626 117.576 72.2115 117.2 71.7408C117.044 71.5525 116.918 71.3014 116.856 71.019C116.793 70.7993 116.762 70.5169 116.762 70.203V67.5669H117.388V70.203C117.388 70.7365 117.482 71.1445 117.701 71.4269C117.952 71.7408 118.327 71.9291 118.828 71.9291C119.235 71.9291 119.58 71.8035 119.862 71.5525C120.049 71.3642 120.206 71.1445 120.269 70.8934C120.331 70.7051 120.363 70.4227 120.363 70.1089V67.5669H120.989V72.3684H120.425V72.337ZM118.797 74.0003V72.9019H119.455V74.0003H118.797Z" fill="#AF1F24"/>
<path id="Vector_47" d="M126.938 70.9249C126.406 71.9605 125.623 72.4626 124.558 72.4626C123.838 72.4626 123.243 72.2116 122.742 71.7408C122.241 71.2701 121.991 70.6424 121.991 69.952C121.991 69.2616 122.241 68.6339 122.742 68.1632C123.243 67.6611 123.838 67.4414 124.558 67.4414C125.091 67.4414 125.56 67.5669 125.999 67.8494C126.437 68.1318 126.75 68.5084 126.938 69.0105H126.249C125.905 68.3201 125.341 67.9749 124.558 67.9749C123.995 67.9749 123.525 68.1632 123.149 68.5398C122.774 68.9164 122.554 69.3871 122.554 69.9206C122.554 70.4855 122.742 70.9563 123.118 71.3328C123.494 71.7094 123.963 71.8977 124.527 71.8977C125.31 71.8977 125.873 71.5839 126.218 70.9249H126.938Z" fill="#AF1F24"/>
<path id="Vector_48" d="M133.2 72.337H132.574L129.913 65.8408H130.633L132.919 71.5524L135.204 65.8408H135.893L133.2 72.337Z" fill="#AF1F24"/>
<path id="Vector_49" d="M136.269 66.9392V65.8408H136.895V66.9392H136.269ZM136.269 72.337V67.5355H136.895V72.337H136.269Z" fill="#AF1F24"/>
<path id="Vector_50" d="M142.813 70.1716H138.461C138.492 70.6423 138.68 71.0503 139.056 71.3955C139.432 71.7407 139.839 71.8976 140.308 71.8976C140.684 71.8976 141.029 71.8035 141.342 71.5838C141.655 71.3641 141.905 71.0816 142.03 70.7364H142.688C142.5 71.2386 142.218 71.6465 141.78 71.9604C141.342 72.2742 140.872 72.4311 140.34 72.4311C139.651 72.4311 139.056 72.18 138.555 71.6779C138.085 71.1758 137.835 70.6109 137.835 69.9205C137.835 69.2301 138.085 68.6338 138.555 68.1317C139.056 67.6296 139.619 67.3785 140.308 67.3785C140.997 67.3785 141.592 67.6296 142.093 68.1317C142.594 68.6338 142.813 69.2301 142.813 69.9519V70.1716ZM142.187 69.6067C142.093 69.1359 141.905 68.728 141.561 68.4455C141.216 68.1317 140.809 67.9748 140.308 67.9748C139.839 67.9748 139.432 68.1317 139.056 68.4455C138.711 68.7593 138.492 69.1359 138.43 69.6067H142.187ZM141.091 66.7195L140.34 66.0918L139.557 66.7195H138.743L140.027 65.6211H140.59L141.843 66.7195H141.091ZM139.995 74.0002V72.9018H140.653V74.0002H139.995Z" fill="#AF1F24"/>
<path id="Vector_51" d="M144.974 68.1004V72.337H144.347V68.1004H143.345V67.5355H144.347V65.8408H144.974V67.5355H146.132V68.1004H144.974Z" fill="#AF1F24"/>
<path id="Vector_52" d="M153.898 72.337L150.046 66.6254H150.015V72.337H149.357V65.8408H150.234L153.866 71.2386H153.898V65.8408H154.555V72.337H153.898Z" fill="#AF1F24"/>
<path id="Vector_53" d="M160.066 72.3367V71.4894H160.035C159.628 72.117 159.001 72.4623 158.156 72.4623C157.436 72.4623 156.81 72.2112 156.34 71.7405C155.839 71.2697 155.588 70.6421 155.588 69.9203C155.588 69.1985 155.839 68.6022 156.34 68.1315C156.841 67.6607 157.436 67.4097 158.156 67.4097C159.001 67.4097 159.628 67.7235 160.035 68.3825H160.066V67.5352H160.692V72.3367H160.066ZM159.565 68.5394C159.189 68.1628 158.72 67.9432 158.187 67.9432C157.624 67.9432 157.154 68.1315 156.778 68.5081C156.402 68.8846 156.215 69.3554 156.215 69.9203C156.215 70.4852 156.402 70.9559 156.778 71.3325C157.154 71.7091 157.624 71.8974 158.187 71.8974C158.72 71.8974 159.189 71.7091 159.565 71.3325C159.941 70.9559 160.129 70.4852 160.129 69.9516C160.129 69.4181 159.941 68.9474 159.565 68.5394Z" fill="#AF1F24"/>
<path id="Vector_54" d="M168.301 72.3367V69.5437C168.301 69.0729 168.207 68.6964 168.019 68.4139C167.8 68.1001 167.455 67.9432 167.017 67.9432C166.579 67.9432 166.234 68.1001 166.015 68.4139C165.827 68.6964 165.702 69.0729 165.702 69.5437V72.3367H165.076V69.5437C165.076 69.0729 164.982 68.6964 164.763 68.4139C164.543 68.1001 164.199 67.9432 163.761 67.9432C163.322 67.9432 162.978 68.1001 162.759 68.4139C162.571 68.6964 162.446 69.0729 162.446 69.5437V72.3367H161.819V67.5352H162.446V68.1001C162.727 67.6607 163.166 67.4097 163.761 67.4097C164.481 67.4097 165.013 67.7235 165.358 68.3198C165.733 67.6921 166.266 67.4097 166.986 67.4097C167.581 67.4097 168.05 67.598 168.395 68.0059C168.739 68.3825 168.896 68.8846 168.896 69.4809V72.3367H168.301Z" fill="#AF1F24"/>
</g>
</g>
</g>
<defs>
<clipPath id="clip0_388_14756">
<rect width="190" height="74" fill="white"/>
</clipPath>
</defs>
</svg>
