<svg width="24" height="24" viewBox="0 0 24 24" fill="none" xmlns="http://www.w3.org/2000/svg">
<path fill-rule="evenodd" clip-rule="evenodd" d="M6 5.72099C6 4.21826 7.2182 3.00006 8.72093 3.00006H14.5814C16.0841 3.00006 17.3023 4.21826 17.3023 5.72099V18.2791C17.3023 19.7819 16.0841 21.0001 14.5814 21.0001H8.72093C7.2182 21.0001 6 19.7819 6 18.2791V5.72099ZM8.72093 4.25587C7.91177 4.25587 7.25581 4.91183 7.25581 5.72099V18.2791C7.25581 19.0883 7.91177 19.7442 8.72093 19.7442H14.5814C15.3906 19.7442 16.0465 19.0883 16.0465 18.2791V5.72099C16.0465 4.91183 15.3906 4.25587 14.5814 4.25587H8.72093Z" fill="black"/>
<path fill-rule="evenodd" clip-rule="evenodd" d="M9.53635 4.33384C9.27193 3.80501 9.65648 3.1828 10.2477 3.1828H13.0547C13.646 3.1828 14.0305 3.80501 13.7661 4.33384L13.5149 4.83617C13.3802 5.10562 13.1048 5.27582 12.8036 5.27582H10.4989C10.1976 5.27582 9.92224 5.10562 9.78751 4.83617L9.53635 4.33384Z" fill="black"/>
<path fill-rule="evenodd" clip-rule="evenodd" d="M8.51163 17.8605C8.51163 17.5137 8.79275 17.2326 9.13953 17.2326L14.1628 17.2326C14.5096 17.2326 14.7907 17.5137 14.7907 17.8605C14.7907 18.2073 14.5096 18.4884 14.1628 18.4884L9.13953 18.4884C8.79275 18.4884 8.51163 18.2073 8.51163 17.8605Z" fill="black"/>
</svg>
