<svg width="24" height="24" viewBox="0 0 24 24" fill="none" xmlns="http://www.w3.org/2000/svg">
<path d="M10.0248 17.3931L8.35149 20.2723C8.35149 20.2723 8.35149 20.2723 8.35149 20.2723C8.35149 20.2723 7.34748 21.9999 5.17375 20.7531C3.00002 19.5064 4.00402 17.7789 4.00402 17.7789C4.00402 17.7789 4.00402 17.7789 4.00402 17.7789L8.68937 9.71702C8.68937 9.71702 8.68937 9.71702 8.68937 9.71702C8.68937 9.71702 10.028 7.41364 12.2018 8.66038C14.3755 9.90712 13.0368 12.2105 13.0368 12.2105" stroke="black" stroke-width="1.5" stroke-linecap="round"/>
<path d="M13.9752 6.60651L15.6485 3.72728C15.6485 3.72728 15.6485 3.72728 15.6485 3.72728C15.6485 3.72728 16.6525 1.99975 18.8262 3.24649C21 4.49323 19.996 6.22077 19.996 6.22077C19.996 6.22077 19.996 6.22077 19.996 6.22077L15.3106 14.2826C15.3106 14.2826 15.3106 14.2826 15.3106 14.2826C15.3106 14.2826 13.972 16.586 11.7982 15.3393C9.62449 14.0925 10.9632 11.7891 10.9632 11.7891" stroke="black" stroke-width="1.5" stroke-linecap="round"/>
</svg>
