<svg width="24" height="24" viewBox="0 0 24 24" fill="none" xmlns="http://www.w3.org/2000/svg">
<path fill-rule="evenodd" clip-rule="evenodd" d="M12 2.75006C8.55413 2.75006 5.75 5.56869 5.75 9.05888C5.75 11.1707 6.75209 13.5293 8.04962 15.6748C9.33532 17.8008 10.8511 19.6208 11.7551 20.634C11.8919 20.7875 12.1081 20.7875 12.2449 20.634C13.1489 19.6208 14.6647 17.8008 15.9504 15.6748C17.2479 13.5293 18.25 11.1707 18.25 9.05888C18.25 5.56869 15.4459 2.75006 12 2.75006ZM4.25 9.05888C4.25 4.75212 7.71389 1.25006 12 1.25006C16.2861 1.25006 19.75 4.75212 19.75 9.05888C19.75 11.5872 18.5742 14.2349 17.2339 16.4511C15.8818 18.6868 14.2999 20.5839 13.3642 21.6326C12.6309 22.4546 11.3691 22.4546 10.6358 21.6326C9.70011 20.5839 8.11819 18.6868 6.76609 16.4511C5.42581 14.2349 4.25 11.5872 4.25 9.05888Z" fill="black"/>
<path fill-rule="evenodd" clip-rule="evenodd" d="M12 6.75006C10.7574 6.75006 9.75 7.75742 9.75 9.00006C9.75 10.2427 10.7574 11.2501 12 11.2501C13.2426 11.2501 14.25 10.2427 14.25 9.00006C14.25 7.75742 13.2426 6.75006 12 6.75006ZM8.25 9.00006C8.25 6.92899 9.92893 5.25006 12 5.25006C14.0711 5.25006 15.75 6.92899 15.75 9.00006C15.75 11.0711 14.0711 12.7501 12 12.7501C9.92893 12.7501 8.25 11.0711 8.25 9.00006Z" fill="black"/>
</svg>
