<svg width="24" height="24" viewBox="0 0 24 24" fill="none" xmlns="http://www.w3.org/2000/svg">
<path fill-rule="evenodd" clip-rule="evenodd" d="M3 7.20006C3 5.98503 3.98497 5.00006 5.2 5.00006H18C19.215 5.00006 20.2 5.98503 20.2 7.20006V16.8001C20.2 18.0151 19.215 19.0001 18 19.0001H5.2C3.98497 19.0001 3 18.0151 3 16.8001V7.20006ZM5.2 6.20006C4.64772 6.20006 4.2 6.64778 4.2 7.20006V16.8001C4.2 17.3523 4.64772 17.8001 5.2 17.8001H18C18.5523 17.8001 19 17.3523 19 16.8001V7.20006C19 6.64778 18.5523 6.20006 18 6.20006H5.2Z" fill="black"/>
<path fill-rule="evenodd" clip-rule="evenodd" d="M3 7.37784C3 6.06463 4.06457 5.00006 5.37778 5.00006H17.8222C19.1354 5.00006 20.2 6.06463 20.2 7.37784V8.72835L12.5886 12.2079C11.9608 12.4949 11.2392 12.4949 10.6114 12.2079L3 8.72835V7.37784ZM5.37778 6.20006C4.72731 6.20006 4.2 6.72737 4.2 7.37784V7.95748L11.1103 11.1165C11.4213 11.2586 11.7787 11.2586 12.0897 11.1165L19 7.95748V7.37784C19 6.72737 18.4727 6.20006 17.8222 6.20006H5.37778Z" fill="black"/>
<path fill-rule="evenodd" clip-rule="evenodd" d="M9.54871 11.6883L3.94871 15.6883L3.25122 14.7118L8.85122 10.7118L9.54871 11.6883Z" fill="black"/>
<path fill-rule="evenodd" clip-rule="evenodd" d="M13.6512 11.6883L19.2512 15.6883L19.9487 14.7118L14.3487 10.7118L13.6512 11.6883Z" fill="black"/>
</svg>
