<svg width="24" height="24" viewBox="0 0 24 24" fill="none" xmlns="http://www.w3.org/2000/svg">
<path fill-rule="evenodd" clip-rule="evenodd" d="M2 6.75006C2 6.33585 2.33579 6.00006 2.75 6.00006H20.75C21.1642 6.00006 21.5 6.33585 21.5 6.75006C21.5 7.16427 21.1642 7.50006 20.75 7.50006H2.75C2.33579 7.50006 2 7.16427 2 6.75006Z" fill="black"/>
<path fill-rule="evenodd" clip-rule="evenodd" d="M2 11.7501C2 11.3358 2.33579 11.0001 2.75 11.0001H20.75C21.1642 11.0001 21.5 11.3358 21.5 11.7501C21.5 12.1643 21.1642 12.5001 20.75 12.5001H2.75C2.33579 12.5001 2 12.1643 2 11.7501Z" fill="black"/>
<path fill-rule="evenodd" clip-rule="evenodd" d="M2 16.7501C2 16.3358 2.33579 16.0001 2.75 16.0001H20.75C21.1642 16.0001 21.5 16.3358 21.5 16.7501C21.5 17.1643 21.1642 17.5001 20.75 17.5001H2.75C2.33579 17.5001 2 17.1643 2 16.7501Z" fill="black"/>
</svg>
