<svg width="24" height="24" viewBox="0 0 24 24" fill="none" xmlns="http://www.w3.org/2000/svg">
<path d="M15 1.50006H9V3.50006H15V1.50006ZM11 14.5001H13V8.50006H11V14.5001ZM19.03 7.89006L20.45 6.47006C20.02 5.96006 19.55 5.48006 19.04 5.06006L17.62 6.48006C16.07 5.24006 14.12 4.50006 12 4.50006C7.03 4.50006 3 8.53006 3 13.5001C3 18.4701 7.02 22.5001 12 22.5001C16.98 22.5001 21 18.4701 21 13.5001C21 11.3801 20.26 9.43006 19.03 7.89006ZM12 20.5001C8.13 20.5001 5 17.3701 5 13.5001C5 9.63006 8.13 6.50006 12 6.50006C15.87 6.50006 19 9.63006 19 13.5001C19 17.3701 15.87 20.5001 12 20.5001Z" fill="black"/>
</svg>
